<?xml version="1.0" standalone="no"?>
<!DOCTYPE svg PUBLIC "-//W3C//DTD SVG 20010904//EN"
 "http://www.w3.org/TR/2001/REC-SVG-20010904/DTD/svg10.dtd">
<svg version="1.0" xmlns="http://www.w3.org/2000/svg"
 width="191.000000pt" height="61.000000pt" viewBox="0 0 191.000000 61.000000"
 preserveAspectRatio="xMidYMid meet">

<g transform="translate(0.000000,61.000000) scale(0.100000,-0.100000)"
fill="#000000" stroke="none">
<path d="M378 454 c-16 -18 -28 -39 -28 -48 0 -9 -7 -16 -15 -16 -8 0 -15 -4
-15 -9 0 -5 7 -14 15 -21 11 -9 15 -33 15 -89 0 -68 3 -80 23 -99 18 -17 35
-22 82 -22 57 0 58 0 41 19 -10 11 -32 21 -50 23 l-31 3 0 75 0 75 35 3 c35 4
60 17 60 33 0 5 -22 9 -49 9 l-50 0 -3 48 -3 47 -27 -31z"/>
<path d="M70 383 c0 -21 27 -33 78 -33 62 0 92 -13 92 -39 0 -17 -10 -19 -79
-22 -60 -3 -84 -9 -100 -23 -27 -24 -27 -70 -1 -96 18 -18 33 -20 147 -20 122
0 126 1 110 18 -13 14 -17 38 -17 90 0 60 -4 75 -24 98 -21 26 -30 28 -115 32
-52 3 -91 1 -91 -5z m170 -163 l0 -31 -67 3 c-57 3 -68 6 -71 22 -5 27 15 36
81 36 57 0 57 0 57 -30z"/>
<path d="M539 347 c-15 -32 -5 -73 22 -87 42 -23 47 -8 18 54 -28 59 -28 59
-40 33z"/>
<path d="M552 170 c11 -17 24 -20 98 -20 l85 0 -33 20 c-24 15 -50 20 -97 20
-63 0 -65 -1 -53 -20z"/>
</g>
</svg>
